<?xml version="1.0" standalone="no"?>
<!DOCTYPE svg PUBLIC "-//W3C//DTD SVG 20010904//EN"
 "http://www.w3.org/TR/2001/REC-SVG-20010904/DTD/svg10.dtd">
<svg version="1.0" xmlns="http://www.w3.org/2000/svg"
 width="609.000000pt" height="609.000000pt" viewBox="0 0 609.000000 609.000000"
 preserveAspectRatio="xMidYMid meet">
<metadata>
Created by potrace 1.11, written by Peter Selinger 2001-2013
</metadata>
<g transform="translate(0.000000,609.000000) scale(0.100000,-0.100000)"
fill="#000000" stroke="none">
<path d="M3851 6074 c-14 -6 -37 -24 -51 -39 -24 -26 -25 -32 -28 -191 l-3
-164 -42 -11 c-188 -53 -373 -129 -457 -189 -16 -11 -32 -20 -36 -20 -4 0 -58
50 -119 110 -62 61 -118 111 -126 111 -8 1 -27 3 -43 5 -45 5 -72 -15 -217
-163 -191 -193 -192 -205 -24 -373 58 -58 105 -109 105 -113 0 -5 -9 -21 -20
-37 -55 -78 -146 -290 -179 -420 l-19 -75 -163 -5 c-178 -5 -193 -10 -225 -64
-16 -27 -18 -56 -18 -233 0 -188 1 -204 20 -230 37 -50 76 -63 199 -62 195 1
195 1 195 -20 0 -68 94 -316 167 -439 24 -41 43 -76 43 -80 0 -3 -49 -56 -109
-117 -122 -123 -137 -154 -107 -217 19 -40 288 -307 311 -309 8 -1 25 -2 38
-3 36 -3 81 25 165 104 43 41 90 86 105 99 l26 23 30 -21 c62 -44 250 -130
351 -160 58 -17 116 -35 130 -39 l25 -7 0 -156 c1 -173 7 -192 68 -229 29 -18
51 -20 227 -20 176 0 198 2 227 20 61 37 66 54 67 230 l0 159 51 12 c140 32
299 95 414 165 l74 45 106 -104 c115 -114 134 -127 181 -127 48 0 65 13 203
149 136 135 157 162 157 211 0 47 -13 66 -127 182 l-106 106 21 29 c30 43 107
198 136 274 24 64 58 185 65 229 1 3 73 5 161 6 144 0 163 3 188 20 55 41 62
71 62 274 0 203 -7 233 -62 274 -25 18 -44 20 -187 20 l-160 1 -11 45 c-19 81
-63 220 -69 220 -3 0 -104 -99 -224 -219 l-219 -219 -3 -134 c-3 -142 -18
-228 -62 -336 -123 -308 -386 -524 -717 -587 -69 -13 -290 -14 -346 -1 -72 16
-193 57 -241 81 -341 173 -544 508 -533 882 1 54 5 109 8 123 3 14 11 49 17
79 6 29 25 88 42 130 149 371 515 610 909 595 l89 -3 220 220 c122 122 217
225 212 229 -10 9 -160 57 -209 66 -19 3 -37 10 -40 15 -3 5 -6 76 -6 157 -2
241 -6 245 -286 246 -124 1 -204 -3 -221 -10z"/>
<path d="M5523 6067 c-20 -8 -275 -257 -725 -709 l-693 -697 -105 110 c-118
124 -132 134 -159 120 -14 -8 -24 -38 -41 -128 -12 -65 -24 -127 -26 -138 -2
-11 -7 -36 -10 -55 -3 -19 -12 -66 -19 -105 -8 -38 -16 -86 -19 -105 -3 -19
-14 -82 -25 -140 -35 -184 -49 -259 -57 -310 -3 -19 -9 -52 -14 -72 -5 -26 -4
-43 5 -55 13 -17 18 -17 112 -1 131 23 149 27 212 39 30 6 64 12 75 14 12 1
75 12 141 25 66 12 130 24 143 26 12 2 32 6 45 8 12 3 96 18 186 35 207 39
201 37 201 69 0 21 -25 52 -112 139 l-112 112 89 90 c1069 1069 1315 1320
1316 1339 1 12 2 29 2 37 0 8 -1 24 -2 36 -1 26 -275 304 -314 318 -35 13 -53
13 -94 -2z"/>
<path d="M940 3074 c-84 -35 -158 -69 -166 -75 -7 -6 -18 -26 -24 -44 -11 -34
3 -77 86 -271 3 -6 -26 -35 -63 -65 -84 -66 -177 -159 -233 -233 -23 -31 -43
-56 -44 -56 -2 0 -167 69 -191 80 -41 18 -66 21 -99 10 -27 -9 -39 -22 -60
-66 -14 -30 -26 -57 -26 -61 0 -4 -14 -38 -31 -77 -18 -39 -37 -84 -44 -100
-15 -33 -11 -70 10 -102 12 -19 217 -114 246 -114 8 0 9 -19 3 -67 -11 -88
-11 -280 -1 -364 l8 -66 -33 -13 c-33 -13 -71 -29 -160 -68 -48 -21 -75 -51
-81 -91 -2 -14 23 -89 59 -175 65 -154 94 -196 137 -196 13 0 76 23 141 50 66
28 120 49 121 48 58 -90 208 -247 285 -300 27 -18 50 -38 50 -44 0 -5 -22 -63
-49 -128 -72 -175 -70 -180 162 -276 137 -57 151 -60 182 -50 40 13 62 42 94
125 53 134 61 147 84 141 89 -21 364 -23 459 -3 5 1 32 -53 60 -119 53 -126
76 -154 130 -154 40 0 322 121 342 147 28 37 22 75 -29 198 -26 64 -46 117
-44 118 67 44 264 230 293 276 9 14 22 34 31 45 15 20 19 20 121 -25 188 -83
204 -76 279 105 26 61 53 124 61 140 23 48 18 99 -13 127 -31 28 -42 33 -161
81 l-84 33 8 75 c10 96 8 311 -4 373 -6 29 -6 47 0 47 27 0 226 94 246 116 31
36 28 73 -18 180 -22 52 -40 96 -40 99 0 2 -12 30 -27 61 -20 42 -35 60 -59
70 -40 17 -47 15 -183 -41 -62 -25 -114 -45 -115 -43 -53 74 -86 113 -148 178
-34 36 -150 134 -174 148 -17 10 -17 14 15 94 19 45 37 88 41 93 8 11 23 62
24 85 2 21 -23 64 -43 77 -31 19 -293 126 -310 126 -39 0 -50 -4 -72 -27 -14
-14 -45 -75 -69 -136 l-45 -111 -60 7 c-80 10 -295 10 -370 1 l-61 -8 -47 114
c-46 110 -75 156 -100 158 -7 0 -19 2 -28 4 -9 1 -85 -26 -169 -61z m1090
-929 c11 -13 10 -53 -5 -195 -2 -19 -7 -62 -10 -95 -3 -33 -8 -78 -10 -100 -2
-22 -7 -62 -9 -90 -33 -331 -25 -320 -151 -195 l-90 90 -219 -219 c-121 -121
-229 -222 -240 -225 -28 -7 -296 256 -296 291 0 17 61 84 221 244 l221 221
-93 94 c-109 112 -108 120 11 129 41 3 86 8 100 10 14 2 59 7 100 10 41 3 86
8 100 10 14 2 59 7 100 11 41 4 102 10 135 14 97 12 122 11 135 -5z"/>
</g>
</svg>
